<?xml version="1.0" encoding="utf-8"?>
<!-- Generator: Adobe Illustrator 25.2.1, SVG Export Plug-In . SVG Version: 6.00 Build 0)  -->
<svg version="1.1" id="Layer_1" xmlns="http://www.w3.org/2000/svg" xmlns:xlink="http://www.w3.org/1999/xlink" x="0px" y="0px"
	 viewBox="0 0 21 16" style="enable-background:new 0 0 21 16;" xml:space="preserve">
<path d="M17.9,0H3.2C2.3,0,1.5,0.3,0.9,0.9C0.3,1.4,0,2.2,0,3v10c0,0.8,0.3,1.6,0.9,2.1C1.5,15.7,2.3,16,3.2,16h14.7
	c0.8,0,1.6-0.3,2.2-0.9c0.6-0.6,0.9-1.3,0.9-2.1V3c0-0.8-0.3-1.6-0.9-2.1C19.5,0.3,18.7,0,17.9,0z M17.9,2L11,6.5
	c-0.2,0.1-0.3,0.1-0.5,0.1s-0.4,0-0.5-0.1L3.2,2H17.9z"/>
</svg>
