<?xml version="1.0" encoding="utf-8"?>
<!-- Generator: Adobe Illustrator 25.2.1, SVG Export Plug-In . SVG Version: 6.00 Build 0)  -->
<svg version="1.1" id="Layer_1" xmlns="http://www.w3.org/2000/svg" xmlns:xlink="http://www.w3.org/1999/xlink" x="0px" y="0px"
	 viewBox="0 0 21 16" style="enable-background:new 0 0 21 16;" xml:space="preserve">
<path d="M19.3,1.9L21,0.3V0h-5.8l-4.1,9.9L6.4,0H0.3v0.3l2,2.3C2.4,2.8,2.5,3,2.5,3.3v8.9c0.1,0.3,0,0.6-0.3,0.9L0,15.6V16h6.3v-0.3
	L4,13.1c-0.1-0.1-0.2-0.3-0.3-0.4c-0.1-0.2-0.1-0.3,0-0.5V4.5L9.2,16h0.6l4.7-11.5v9.2c0,0.2,0,0.3-0.2,0.5l-1.7,1.6V16H21v-0.3
	l-1.6-1.5c-0.1-0.1-0.2-0.3-0.2-0.5V2.3c0-0.1,0-0.2,0-0.2C19.2,2,19.3,1.9,19.3,1.9z"/>
</svg>
