<?xml version="1.0" encoding="utf-8"?>
<!-- Generator: Adobe Illustrator 25.2.1, SVG Export Plug-In . SVG Version: 6.00 Build 0)  -->
<svg version="1.1" id="Layer_1" xmlns="http://www.w3.org/2000/svg" xmlns:xlink="http://www.w3.org/1999/xlink" x="0px" y="0px"
	 viewBox="0 0 18 23" style="enable-background:new 0 0 18 23;" xml:space="preserve">
<path d="M18,20.1c0,0.8-0.3,1.5-0.9,2C16.5,22.7,15.8,23,15,23H9c-2.5,0-4.6-0.8-6.4-2.5C0.9,18.8,0,16.8,0,14.4V2.9
	c0-0.8,0.3-1.5,0.9-2C1.5,0.3,2.2,0,3,0c0.8,0,1.5,0.3,2.1,0.8C5.7,1.4,6,2.1,6,2.9V7h8.5c0.8,0,1.4,0.3,2,0.8
	c0.6,0.5,0.8,1.1,0.8,1.9c0,0.7-0.3,1.4-0.8,1.9c-0.5,0.5-1.2,0.8-2,0.8H6v2c0,0.8,0.3,1.5,0.9,2C7.5,17,8.2,17.2,9,17.2h6
	c0.8,0,1.5,0.3,2.1,0.8C17.7,18.7,18,19.3,18,20.1"/>
</svg>
